<svg width="1062" height="748" viewBox="0 0 1062 748" fill="none" xmlns="http://www.w3.org/2000/svg">
<g clip-path="url(#clip0_262_704)">
<rect width="1062" height="748" fill="#3478F6"/>
<path d="M485.162 -26.8551C485.162 -26.8551 446.569 119.657 582.468 157.353C718.367 195.05 1007.86 -64.4146 1007.86 -64.4146C1007.86 -64.4146 747.844 335.774 758.5 367.5C769.156 399.226 1278.15 68.1949 1278.15 68.1949L988 568" stroke="white" stroke-opacity="0.1" stroke-width="118"/>
<path d="M525.768 775.247C525.768 775.247 579.322 633.519 448.057 581.954C316.792 530.39 1.98783 758.486 1.98783 758.486C1.98783 758.486 271.314 338.66 264 306.001C256.686 273.342 -253.118 598.604 -253.118 598.604L-48.5 264.001" stroke="white" stroke-opacity="0.1" stroke-width="128"/>
<path d="M469.704 696.12C469.24 695.144 468.568 694.392 467.688 693.864C466.808 693.32 465.784 693.048 464.616 693.048C463.448 693.048 462.392 693.32 461.448 693.864C460.52 694.392 459.784 695.16 459.24 696.168C458.712 697.16 458.448 698.312 458.448 699.624C458.448 700.936 458.712 702.088 459.24 703.08C459.784 704.072 460.52 704.84 461.448 705.384C462.392 705.912 463.448 706.176 464.616 706.176C466.248 706.176 467.592 705.688 468.648 704.712C469.704 703.736 470.32 702.416 470.496 700.752H463.824V698.976H472.824V700.656C472.696 702.032 472.264 703.296 471.528 704.448C470.792 705.584 469.824 706.488 468.624 707.16C467.424 707.816 466.088 708.144 464.616 708.144C463.064 708.144 461.648 707.784 460.368 707.064C459.088 706.328 458.072 705.312 457.32 704.016C456.584 702.72 456.216 701.256 456.216 699.624C456.216 697.992 456.584 696.528 457.32 695.232C458.072 693.92 459.088 692.904 460.368 692.184C461.648 691.448 463.064 691.08 464.616 691.08C466.392 691.08 467.96 691.52 469.32 692.4C470.696 693.28 471.696 694.52 472.32 696.12H469.704ZM477.895 693.048V698.64H483.991V700.44H477.895V706.2H484.711V708H475.711V691.248H484.711V693.048H477.895ZM498.312 691.272V693.048H493.752V708H491.568V693.048H486.984V691.272H498.312ZM509.376 699.384C509.984 699.48 510.536 699.728 511.032 700.128C511.544 700.528 511.944 701.024 512.232 701.616C512.536 702.208 512.688 702.84 512.688 703.512C512.688 704.36 512.472 705.128 512.04 705.816C511.608 706.488 510.976 707.024 510.144 707.424C509.328 707.808 508.36 708 507.24 708H501V691.272H507C508.136 691.272 509.104 691.464 509.904 691.848C510.704 692.216 511.304 692.72 511.704 693.36C512.104 694 512.304 694.72 512.304 695.52C512.304 696.512 512.032 697.336 511.488 697.992C510.96 698.632 510.256 699.096 509.376 699.384ZM503.184 698.496H506.856C507.88 698.496 508.672 698.256 509.232 697.776C509.792 697.296 510.072 696.632 510.072 695.784C510.072 694.936 509.792 694.272 509.232 693.792C508.672 693.312 507.864 693.072 506.808 693.072H503.184V698.496ZM507.048 706.2C508.136 706.2 508.984 705.944 509.592 705.432C510.2 704.92 510.504 704.208 510.504 703.296C510.504 702.368 510.184 701.64 509.544 701.112C508.904 700.568 508.048 700.296 506.976 700.296H503.184V706.2H507.048ZM517.903 706.224H523.759V708H515.719V691.272H517.903V706.224ZM533.662 708.168C532.11 708.168 530.694 707.808 529.414 707.088C528.134 706.352 527.118 705.336 526.366 704.04C525.63 702.728 525.262 701.256 525.262 699.624C525.262 697.992 525.63 696.528 526.366 695.232C527.118 693.92 528.134 692.904 529.414 692.184C530.694 691.448 532.11 691.08 533.662 691.08C535.23 691.08 536.654 691.448 537.934 692.184C539.214 692.904 540.222 693.912 540.958 695.208C541.694 696.504 542.062 697.976 542.062 699.624C542.062 701.272 541.694 702.744 540.958 704.04C540.222 705.336 539.214 706.352 537.934 707.088C536.654 707.808 535.23 708.168 533.662 708.168ZM533.662 706.272C534.83 706.272 535.878 706 536.806 705.456C537.75 704.912 538.486 704.136 539.014 703.128C539.558 702.12 539.83 700.952 539.83 699.624C539.83 698.28 539.558 697.112 539.014 696.12C538.486 695.112 537.758 694.336 536.83 693.792C535.902 693.248 534.846 692.976 533.662 692.976C532.478 692.976 531.422 693.248 530.494 693.792C529.566 694.336 528.83 695.112 528.286 696.12C527.758 697.112 527.494 698.28 527.494 699.624C527.494 700.952 527.758 702.12 528.286 703.128C528.83 704.136 529.566 704.912 530.494 705.456C531.438 706 532.494 706.272 533.662 706.272ZM544.13 699.624C544.13 697.992 544.498 696.528 545.234 695.232C545.97 693.92 546.97 692.896 548.234 692.16C549.514 691.424 550.93 691.056 552.482 691.056C554.306 691.056 555.898 691.496 557.258 692.376C558.618 693.256 559.61 694.504 560.234 696.12H557.618C557.154 695.112 556.482 694.336 555.602 693.792C554.738 693.248 553.698 692.976 552.482 692.976C551.314 692.976 550.266 693.248 549.338 693.792C548.41 694.336 547.682 695.112 547.154 696.12C546.626 697.112 546.362 698.28 546.362 699.624C546.362 700.952 546.626 702.12 547.154 703.128C547.682 704.12 548.41 704.888 549.338 705.432C550.266 705.976 551.314 706.248 552.482 706.248C553.698 706.248 554.738 705.984 555.602 705.456C556.482 704.912 557.154 704.136 557.618 703.128H560.234C559.61 704.728 558.618 705.968 557.258 706.848C555.898 707.712 554.306 708.144 552.482 708.144C550.93 708.144 549.514 707.784 548.234 707.064C546.97 706.328 545.97 705.312 545.234 704.016C544.498 702.72 544.13 701.256 544.13 699.624ZM572.557 708L565.669 700.368V708H563.485V691.272H565.669V699.024L572.581 691.272H575.341L567.757 699.648L575.413 708H572.557ZM578.548 708.144C578.132 708.144 577.78 708 577.492 707.712C577.204 707.424 577.06 707.072 577.06 706.656C577.06 706.24 577.204 705.888 577.492 705.6C577.78 705.312 578.132 705.168 578.548 705.168C578.948 705.168 579.284 705.312 579.556 705.6C579.844 705.888 579.988 706.24 579.988 706.656C579.988 707.072 579.844 707.424 579.556 707.712C579.284 708 578.948 708.144 578.548 708.144ZM585.075 691.272V708H582.891V691.272H585.075ZM596.381 708.168C594.829 708.168 593.413 707.808 592.133 707.088C590.853 706.352 589.837 705.336 589.085 704.04C588.349 702.728 587.981 701.256 587.981 699.624C587.981 697.992 588.349 696.528 589.085 695.232C589.837 693.92 590.853 692.904 592.133 692.184C593.413 691.448 594.829 691.08 596.381 691.08C597.949 691.08 599.373 691.448 600.653 692.184C601.933 692.904 602.941 693.912 603.677 695.208C604.413 696.504 604.781 697.976 604.781 699.624C604.781 701.272 604.413 702.744 603.677 704.04C602.941 705.336 601.933 706.352 600.653 707.088C599.373 707.808 597.949 708.168 596.381 708.168ZM596.381 706.272C597.549 706.272 598.597 706 599.525 705.456C600.469 704.912 601.205 704.136 601.733 703.128C602.277 702.12 602.549 700.952 602.549 699.624C602.549 698.28 602.277 697.112 601.733 696.12C601.205 695.112 600.477 694.336 599.549 693.792C598.621 693.248 597.565 692.976 596.381 692.976C595.197 692.976 594.141 693.248 593.213 693.792C592.285 694.336 591.549 695.112 591.005 696.12C590.477 697.112 590.213 698.28 590.213 699.624C590.213 700.952 590.477 702.12 591.005 703.128C591.549 704.136 592.285 704.912 593.213 705.456C594.157 706 595.213 706.272 596.381 706.272Z" fill="white"/>
<path d="M554 202L515 179L554 156L593 179L554 202Z" fill="#25BAFF"/>
<path d="M272.877 496.533L169.013 435.357V555.02L272.877 612.498V496.533Z" fill="#F1F6FF"/>
<path d="M374.723 436.367L272.876 496.534V612.499L374.723 555.628V436.367Z" fill="#F0F1FF"/>
<path d="M272.884 496.55L169 435.37L272.986 378.352L374.733 436.373L272.884 496.55Z" fill="white"/>
<path fill-rule="evenodd" clip-rule="evenodd" d="M270.513 420.121H221.478V438.981C221.478 449.397 243.432 457.841 270.513 457.841C297.595 457.841 319.549 449.397 319.549 438.981V420.121H270.513Z" fill="#70E2AC"/>
<ellipse cx="270.513" cy="419.18" rx="49.0359" ry="18.8599" fill="#00C860"/>
<path fill-rule="evenodd" clip-rule="evenodd" d="M276.814 396.248H227.778V415.108C227.778 425.524 249.732 433.968 276.814 433.968C303.896 433.968 325.85 425.524 325.85 415.108V396.248H276.814Z" fill="#70E2AC"/>
<ellipse cx="276.815" cy="395.306" rx="49.0359" ry="18.8599" fill="#00C860"/>
<path fill-rule="evenodd" clip-rule="evenodd" d="M266.917 371.057H217.881V389.917C217.881 400.333 239.835 408.777 266.917 408.777C293.998 408.777 315.953 400.333 315.953 389.917V371.057H266.917Z" fill="#70E2AC"/>
<ellipse cx="266.921" cy="370.115" rx="49.0359" ry="18.8599" fill="#00C860"/>
<path fill-rule="evenodd" clip-rule="evenodd" d="M349 506.897L349.007 516.66C348.944 517.623 348.863 518.595 348.764 519.575C348.598 521.213 347.446 523.07 346 524.008C341.469 526.946 336.781 529.412 332.251 531.242C330.804 531.826 329.652 531.181 329.487 529.717C328.945 524.936 328.945 519.82 329.487 514.47C329.652 512.832 330.804 510.974 332.251 510.036C336.781 507.099 341.469 504.632 346 502.803C347.446 502.219 348.598 502.864 348.764 504.328C348.86 505.174 348.939 506.03 349 506.897ZM339.125 512.979C337.085 514.052 335.431 516.732 335.431 518.966C335.431 521.199 337.085 522.139 339.125 521.066C341.165 519.992 342.819 517.312 342.819 515.079C342.819 512.846 341.165 511.905 339.125 512.979Z" fill="#3478F6"/>
<path d="M347.507 496.546C347.89 497.07 347.171 498.261 346.41 498.568C341.607 500.508 336.644 503.119 331.84 506.234C328.715 508.261 326.187 512.285 325.818 515.93C325.243 521.61 325.243 527.042 325.818 532.117C326.187 535.374 328.715 536.738 331.84 535.476C336.644 533.537 341.607 530.925 346.41 527.81C347.176 527.314 347.901 527.751 347.514 528.684C345.597 533.313 342.178 537.637 338.206 540.185L336.601 541.214C328.448 546.443 320.225 550.708 312.084 553.929L311.02 554.35C306.632 556.086 303.155 554.162 302.57 549.674C301.484 541.339 301.484 532.313 302.57 522.835C303.155 517.732 306.632 512.15 311.02 509.268L312.084 508.57C320.225 503.225 328.448 498.837 336.601 495.486L338.206 494.827C342.182 493.193 345.595 493.927 347.507 496.546Z" fill="#3478F6"/>
<path fill-rule="evenodd" clip-rule="evenodd" d="M220.795 494.755C206.715 487.347 195.301 494.603 195.301 510.961C195.301 527.319 206.715 546.585 220.795 553.993C234.875 561.401 246.289 554.145 246.289 537.787C246.289 521.429 234.875 502.163 220.795 494.755ZM219.583 541.663C219.883 542.193 220.267 542.582 220.737 542.829C221.207 543.076 221.592 543.092 221.891 542.878C222.19 542.687 222.34 542.332 222.34 541.81V539.167C224.305 539.853 225.897 539.859 227.115 539.184C228.354 538.496 228.974 537.109 228.974 535.024C228.974 533.187 228.493 531.457 227.532 529.834C226.57 528.186 225.064 526.562 223.013 524.962L219.519 522.23C218.387 521.336 217.586 520.518 217.116 519.774C216.645 519.005 216.41 518.199 216.41 517.355C216.41 516.213 216.795 515.497 217.564 515.207C218.355 514.903 219.434 515.111 220.801 515.83C221.87 516.392 222.788 517.012 223.558 517.69C224.327 518.343 225.021 519.043 225.641 519.791C226.196 520.456 226.677 520.833 227.083 520.922C227.51 520.998 227.82 520.888 228.012 520.592C228.226 520.283 228.301 519.875 228.237 519.37C228.173 518.839 227.938 518.281 227.532 517.695C226.827 516.679 225.993 515.732 225.032 514.854C224.092 513.987 223.194 513.279 222.34 512.73V510.123C222.34 509.602 222.179 509.083 221.859 508.567C221.56 508.037 221.186 507.654 220.737 507.418C220.267 507.171 219.883 507.155 219.583 507.37C219.284 507.56 219.135 507.916 219.135 508.437V511.081C217.062 510.288 215.406 510.286 214.167 511.073C212.949 511.848 212.34 513.277 212.34 515.363C212.34 519.111 214.274 522.486 218.141 525.489L221.538 528.133C222.799 529.119 223.675 530.002 224.166 530.782C224.658 531.562 224.904 532.361 224.904 533.18C224.904 534.173 224.551 534.819 223.846 535.119C223.141 535.393 221.987 535.109 220.385 534.266C219.017 533.546 217.842 532.754 216.859 531.889C215.898 531.011 215.118 530.216 214.519 529.504C213.964 528.84 213.483 528.5 213.077 528.485C212.671 528.47 212.383 528.666 212.212 529.072C212.041 529.479 212.009 529.983 212.116 530.585C212.244 531.199 212.554 531.796 213.045 532.378C213.772 533.231 214.637 534.121 215.641 535.047C216.667 535.959 217.831 536.807 219.135 537.592V540.124C219.135 540.645 219.284 541.159 219.583 541.663Z" fill="#3478F6"/>
<circle r="4.87077" transform="matrix(0.92388 -0.382683 0 1 325.621 571.849)" fill="#BCD4FF"/>
<circle r="3.24718" transform="matrix(0.92388 -0.382683 0 1 325.831 571.848)" fill="#4886F7"/>
<path d="M325.831 575.359V582.859L332.831 586.859L481.331 502.359L410.331 462.359L465.831 430.859V424.359" stroke="#BCD4FF" stroke-width="3"/>
<path d="M618.331 416.359L617.831 426.859L719.331 493.359" stroke="#BCD4FF" stroke-width="2"/>
<path d="M605.331 423.359L604.831 434.359L710.331 504.859" stroke="#BCD4FF" stroke-width="2"/>
<path d="M592.331 431.359L591.831 442.359L695.831 512.359" stroke="#BCD4FF" stroke-width="2"/>
<path d="M928.564 553.484V520.484L798.671 595.963V628.963L928.564 553.484Z" fill="#F0F1FF"/>
<path d="M669.831 553.838V519.785L798.671 595.966V628.966L669.831 553.838Z" fill="#F1F6FF"/>
<path d="M798.671 486.434V470.285L886.086 520.487L872.745 528.562L798.671 486.434Z" fill="#E5E8FF"/>
<path d="M798.671 486.434L724.947 528.562L711.256 519.785L798.671 470.285V486.434Z" fill="#DDE9FF"/>
<path fill-rule="evenodd" clip-rule="evenodd" d="M669.831 519.785L798.671 445.359L928.565 520.488L798.671 595.966L669.831 519.785ZM711.257 519.785L798.671 470.285L886.086 520.488L798.671 572.444L711.257 519.785Z" fill="white"/>
<path d="M725.331 528.359L798.831 486.359L872.831 528.359L798.831 572.359L725.331 528.359Z" fill="white"/>
<path d="M724.88 528.858L669.831 320.36H932.69L872.48 529.202L798.508 573.241L724.88 528.858Z" fill="url(#paint0_linear_262_704)"/>
<circle r="26.2284" transform="matrix(-0.992021 -0.0914234 0.0827401 0.991462 779.372 514.882)" fill="#FFC380"/>
<circle r="26.2284" transform="matrix(-0.992021 -0.0914234 0.0827401 0.991462 784.812 510.761)" fill="#F19A37"/>
<path d="M797.431 506.754C797.405 502.992 794.184 500.969 790.003 499.62L790.484 494.523L787.22 493.75L786.751 498.712C785.893 498.509 785.015 498.317 784.142 498.128L784.611 493.132L781.349 492.359L780.872 497.454L774.29 495.904L773.979 499.218C773.979 499.218 776.394 499.746 776.35 499.778C777.672 500.092 778.034 500.924 778.099 501.583L776.786 515.545C776.69 515.927 776.387 516.499 775.463 516.28C775.501 516.326 773.09 515.715 773.09 515.715L772.094 519.272L778.67 520.849L778.186 526.005L781.446 526.778L781.927 521.678C782.822 521.907 783.686 522.119 784.531 522.319L784.052 527.396L787.316 528.169L787.801 523.023C793.317 524.024 797.281 523.62 798.217 518.838C798.973 514.986 797.188 512.763 794.14 511.313C796.118 510.844 797.453 509.511 797.429 506.756L797.431 506.754ZM791.826 516.695C791.463 520.548 784.567 518.466 782.354 517.943L782.998 511.113C785.21 511.638 792.203 512.677 791.827 516.695L791.826 516.695ZM791.217 506.7C790.887 510.206 785.138 508.424 783.294 507.987L783.875 501.791C785.719 502.229 791.56 503.044 791.215 506.699" fill="white"/>
<circle r="26.2284" transform="matrix(-0.992021 -0.0914234 0.0827401 0.991462 702.372 348.883)" fill="#FFE38E"/>
<circle r="26.2284" transform="matrix(-0.992021 -0.0914234 0.0827401 0.991462 707.812 344.763)" fill="#FFCD35"/>
<path d="M712.916 354.933L713.546 358.522L710.612 360.36L707.126 358.522L706.496 354.933L709.983 356.772L712.916 354.933ZM693.315 342.522L696.802 344.36L697.881 350.514L703.878 353.643L704.507 357.232L695.04 352.353L693.315 342.522ZM721.65 342.522L723.378 352.368L715.529 357.246L714.9 353.658L719.799 350.529L718.719 344.375L721.65 342.522ZM712.075 337.643L715.654 339.482L716.283 343.07L711.384 346.199L712.479 352.442L709.638 354.281L706.167 352.442L705.07 346.184L698.872 343.055L698.243 339.467L701.177 337.628L707.173 340.757L712.075 337.643ZM699.325 345.636L702.811 347.474L703.441 351.063L699.954 349.224L699.325 345.636ZM716.733 345.636L717.363 349.224L714.522 351.063L713.892 347.474L716.733 345.636ZM695.074 334.514L698.653 336.353L695.72 338.192L696.349 341.78L692.863 339.941L692.233 336.353L695.074 334.514ZM717.082 334.514L720.661 336.353L721.29 339.941L718.356 341.78L717.727 338.192L714.241 336.353L717.082 334.514ZM706.078 334.514L709.657 336.353L706.723 338.192L703.237 336.353L706.078 334.514ZM704.999 328.36L714.559 333.239L711.717 335.078L705.721 331.949L700.714 335.078L697.227 333.239L704.999 328.36Z" fill="white"/>
<circle r="26.2284" transform="matrix(-0.992021 -0.0914234 0.0827401 0.991462 742.372 395.883)" fill="#7CD6FF"/>
<circle r="26.2284" transform="matrix(-0.992021 -0.0914234 0.0827401 0.991462 747.812 391.763)" fill="#32ADE6"/>
<path d="M746.664 386.825L758.952 391.893L744.188 373.36L746.664 386.825Z" fill="white" fill-opacity="0.5"/>
<path d="M746.662 386.816L744.187 373.36L736.239 391.893L746.662 386.816Z" fill="white"/>
<path d="M750.879 409.749L759.348 394.01L749.198 400.609L750.879 409.749Z" fill="white" fill-opacity="0.5"/>
<path d="M736.629 394.01L750.88 409.749L749.199 400.608L736.629 394.01Z" fill="white"/>
<path d="M746.662 386.816L748.81 398.495L758.952 391.893L746.662 386.816Z" fill="white" fill-opacity="0.25"/>
<path d="M746.662 386.816L736.239 391.893L748.81 398.495L746.662 386.816Z" fill="white" fill-opacity="0.5"/>
<circle r="26.2284" transform="matrix(0.995805 -0.0915016 -0.123775 0.99231 901.466 357.911)" fill="#A670FF"/>
<circle r="26.2284" transform="matrix(0.995805 -0.0915016 -0.123775 0.99231 896.196 353.787)" fill="#8347E5"/>
<path d="M904.627 348.304C904.099 347.974 903.355 347.974 902.682 348.304L897.885 350.832L894.634 352.482L889.836 355.01C889.22 355.34 888.477 355.34 887.891 355.01L884.609 353.031C884.08 352.701 883.761 352.097 883.848 351.437L884.368 347.534C884.456 346.874 884.879 346.27 885.552 345.94L889.297 344.016C889.913 343.686 890.657 343.686 891.242 344.016L894.475 345.94C895.003 346.27 895.323 346.874 895.235 347.534L894.898 350.063L898.157 348.359L898.493 345.83C898.581 345.17 898.318 344.566 897.733 344.236L891.753 340.608C891.225 340.278 890.481 340.278 889.808 340.608L882.748 344.236C882.075 344.566 881.651 345.17 881.563 345.83L880.59 353.141C880.502 353.801 880.765 354.406 881.35 354.735L887.445 358.364C887.973 358.693 888.717 358.693 889.39 358.364L894.18 355.89L897.438 354.186L902.229 351.712C902.845 351.382 903.588 351.382 904.173 351.712L907.406 353.636C907.934 353.966 908.254 354.57 908.167 355.23L907.647 359.133C907.559 359.793 907.136 360.397 906.463 360.727L902.71 362.706C902.095 363.036 901.351 363.036 900.766 362.706L897.533 360.782C897.005 360.452 896.685 359.848 896.773 359.188L897.109 356.659L893.851 358.364L893.514 360.892C893.427 361.552 893.689 362.157 894.275 362.486L900.369 366.115C900.897 366.444 901.641 366.444 902.314 366.115L909.374 362.486C909.99 362.157 910.471 361.552 910.559 360.892L911.532 353.581C911.619 352.921 911.357 352.317 910.772 351.987L904.627 348.304Z" fill="white"/>
<circle r="26.2284" transform="matrix(0.989415 -0.117369 -0.0581408 0.99338 868.606 431.607)" fill="#FF6BBA"/>
<circle r="26.2284" transform="matrix(0.989415 -0.117369 -0.0581408 0.99338 863.065 427.631)" fill="#E6007A"/>
<path d="M863.735 416.949C867.371 416.949 870.544 415.25 870.823 413.154C871.101 411.058 868.381 409.359 864.745 409.359C861.11 409.359 857.937 411.058 857.658 413.154C857.379 415.25 860.1 416.949 863.735 416.949Z" fill="white"/>
<path d="M859.93 445.543C863.565 445.543 866.738 443.844 867.017 441.748C867.296 439.652 864.575 437.953 860.94 437.953C857.304 437.953 854.131 439.652 853.852 441.748C853.574 443.844 856.294 445.543 859.93 445.543Z" fill="white"/>
<path d="M853.864 422.202C856.097 419.081 856.535 415.701 854.842 414.653C853.15 413.604 849.967 415.284 847.734 418.404C845.502 421.525 845.064 424.905 846.756 425.953C848.449 427.002 851.631 425.322 853.864 422.202Z" fill="white"/>
<path d="M876.938 436.494C879.171 433.373 879.61 429.994 877.918 428.946C876.227 427.898 873.045 429.579 870.813 432.699C868.58 435.82 868.141 439.199 869.832 440.247C871.524 441.295 874.705 439.615 876.938 436.494Z" fill="white"/>
<path d="M851.436 440.25C853.407 439.201 853.869 435.821 852.467 432.701C851.064 429.58 848.329 427.9 846.357 428.949C844.386 429.998 843.924 433.377 845.326 436.498C846.729 439.619 849.464 441.298 851.436 440.25Z" fill="white"/>
<path d="M878.318 425.954C880.288 424.906 880.749 421.527 879.346 418.406C877.944 415.286 875.21 413.606 873.24 414.653C871.269 415.701 870.809 419.081 872.211 422.201C873.613 425.322 876.347 427.002 878.318 425.954Z" fill="white"/>
<path d="M191.589 112.664C197.09 111.111 203.002 112.611 207.098 116.599L241.48 150.076C245.575 154.063 247.232 159.933 245.826 165.474L234.026 211.988C232.62 217.528 228.365 221.898 222.864 223.451L176.681 236.488C171.18 238.041 165.268 236.541 161.172 232.554L126.791 199.077C122.695 195.089 121.038 189.219 122.444 183.679L134.245 137.165C135.65 131.624 139.905 127.254 145.407 125.701L191.589 112.664Z" fill="white"/>
<path d="M183.384 174.128V208.013L154.344 191.416V157.532L183.384 174.128Z" fill="#3478F6"/>
<path opacity="0.25" d="M183.383 174.128L212.423 157.532V191.416L183.383 208.013V174.128Z" fill="#3478F6"/>
<path opacity="0.5" d="M183.384 140.936L212.423 157.532L183.384 174.128L154.344 157.532L183.384 140.936Z" fill="#3478F6"/>
<path d="M825.903 183.478C825.274 181.594 822.872 181.051 822.244 182.65L818.423 192.372C818.225 192.875 817.804 193.211 817.27 193.293L806.944 194.874C805.246 195.134 805.246 197.597 806.944 198.626L817.27 204.88C817.804 205.203 818.225 205.73 818.423 206.322L822.244 217.774C822.872 219.657 825.274 220.201 825.903 218.602L829.724 208.879C829.921 208.377 830.342 208.04 830.876 207.958L841.202 206.377C842.901 206.117 842.901 203.655 841.202 202.626L830.876 196.372C830.342 196.048 829.921 195.522 829.724 194.929L825.903 183.478Z" fill="#8347E5"/>
<path d="M125.293 379.209C124.665 377.325 122.262 376.782 121.634 378.381L119.328 384.248C119.131 384.751 118.71 385.087 118.176 385.169L111.944 386.123C110.246 386.383 110.246 388.846 111.944 389.875L118.176 393.649C118.71 393.972 119.131 394.499 119.328 395.091L121.634 402.002C122.262 403.885 124.665 404.429 125.293 402.83L127.599 396.963C127.796 396.46 128.217 396.124 128.751 396.042L134.983 395.088C136.681 394.828 136.681 392.365 134.983 391.336L128.751 387.562C128.217 387.239 127.796 386.712 127.599 386.12L125.293 379.209Z" fill="#8347E5"/>
<path d="M587.744 583.882C586.801 581.057 583.198 580.242 582.256 582.64L578.715 591.651C578.418 592.405 577.787 592.909 576.986 593.032L567.416 594.497C564.868 594.887 564.868 598.581 567.416 600.124L576.986 605.921C577.787 606.406 578.418 607.196 578.715 608.084L582.256 618.697C583.198 621.522 586.801 622.338 587.744 619.939L591.285 610.929C591.582 610.174 592.213 609.67 593.014 609.547L602.584 608.082C605.131 607.692 605.131 603.998 602.584 602.455L593.014 596.659C592.213 596.174 591.582 595.383 591.285 594.495L587.744 583.882Z" fill="#FFCD35"/>
<path d="M992.829 438.33C992.201 436.446 989.799 435.903 989.17 437.502L986.72 443.738C986.522 444.241 986.101 444.577 985.567 444.659L978.944 445.673C977.246 445.933 977.246 448.396 978.944 449.424L985.567 453.436C986.101 453.759 986.522 454.286 986.72 454.878L989.17 462.223C989.799 464.107 992.201 464.65 992.829 463.051L995.28 456.815C995.478 456.312 995.899 455.976 996.433 455.894L1003.06 454.88C1004.75 454.62 1004.75 452.157 1003.06 451.129L996.433 447.117C995.899 446.794 995.478 446.267 995.28 445.675L992.829 438.33Z" fill="#00C860"/>
<path d="M295.186 250.604C296.153 247.992 299.847 247.992 300.814 250.604L303.193 257.034C303.497 257.856 304.144 258.503 304.966 258.807L311.396 261.186C314.008 262.153 314.008 265.847 311.396 266.814L304.966 269.193C304.144 269.497 303.497 270.144 303.193 270.966L300.814 277.396C299.847 280.008 296.153 280.008 295.186 277.396L292.807 270.966C292.503 270.144 291.856 269.497 291.034 269.193L284.604 266.814C281.992 265.847 281.992 262.153 284.604 261.186L291.034 258.807C291.856 258.503 292.503 257.856 292.807 257.034L295.186 250.604Z" fill="#E6007A"/>
<path d="M656.582 212.023L536.696 281.82V311.381L656.582 242.406V212.023Z" fill="#F0F1FF"/>
<path d="M417.222 211.612L425.433 206.686V210.791L536.697 275.25V281.82L417.222 211.612Z" fill="white"/>
<path d="M656.582 212.023L536.696 281.82V275.25L648.782 210.791V206.686L656.582 212.023Z" fill="white"/>
<path d="M417.632 241.994L417.222 211.612L536.697 281.82V311.38L417.632 241.994Z" fill="#F1F6FF"/>
<path d="M425.433 253.491V246.922L536.697 311.381V317.54L425.433 253.491Z" fill="#32ADE6"/>
<path d="M425.433 210.792V204.223L536.697 268.682V275.251L425.433 210.792Z" fill="#32ADE6"/>
<path d="M536.696 311.381V317.54L648.782 253.08V246.922L536.696 311.381Z" fill="#32ADE6"/>
<path d="M536.696 268.682V275.251L648.782 210.792V204.223L536.696 268.682Z" fill="#32ADE6"/>
<path d="M536.696 317.54V328.214L661.099 254.723L648.782 246.922V253.08L536.696 317.54Z" fill="white"/>
<path d="M409.831 253.491L536.697 328.214V317.539L425.433 253.491V246.922L422.969 245.279L409.831 253.491Z" fill="white"/>
<path d="M536.697 328.215L409.831 253.491V399.654L536.697 469.861V328.215Z" fill="#F1F6FF"/>
<path d="M661.099 254.723L536.696 328.214V469.861L661.099 400.395V254.723Z" fill="#F0F1FF"/>
<path d="M657.43 199.36V168.688L536.7 238.842V269.514L657.43 199.36Z" fill="#F0F1FF"/>
<path d="M416.949 199.687V168.036L536.701 238.843V269.515L416.949 199.687Z" fill="#F1F6FF"/>
<path d="M536.7 137.038V122.028L617.948 168.689L605.549 176.194L536.7 137.038Z" fill="#F0F1FF"/>
<path d="M536.7 137.038L468.178 176.194L455.452 168.036L536.7 122.028V137.038Z" fill="#F1F6FF"/>
<path fill-rule="evenodd" clip-rule="evenodd" d="M416.949 168.036L536.701 98.8604L657.431 168.689L536.701 238.842L416.949 168.036ZM455.452 168.036L536.701 122.028L617.949 168.689L536.701 216.98L455.452 168.036Z" fill="white"/>
<path d="M468.331 175.86L536.831 136.86L605.831 175.86L536.831 217.36L468.331 175.86Z" fill="white"/>
<path d="M536.831 198.86L497.831 175.86V33.3604H575.831V175.86L536.831 198.86Z" fill="url(#paint1_linear_262_704)"/>
<path d="M536.831 198.861L514.496 183.54L514.496 0H558.991V183.54L536.831 198.861Z" fill="url(#paint2_linear_262_704)"/>
<path d="M458.302 329.515C459.409 328.914 459.409 326.936 458.302 325.095C457.194 323.255 455.399 322.249 454.292 322.85L446.73 326.948C445.623 327.548 445.623 329.527 446.73 331.368L454.292 343.936C455.399 345.776 457.194 346.782 458.302 346.181C459.409 345.581 459.409 343.603 458.302 341.762L455.581 337.24L494.105 358.814C495.671 359.691 496.94 359.003 496.94 357.277C496.94 355.551 495.671 353.441 494.105 352.564L455.581 330.99L458.302 329.515Z" fill="#3478F6"/>
<path d="M492.1 377.356C490.992 377.957 490.992 379.935 492.1 381.776L494.821 386.298L456.297 364.724C454.731 363.847 453.461 364.535 453.461 366.261C453.461 367.987 454.731 370.097 456.297 370.974L494.821 392.548L492.1 394.023C490.992 394.623 490.992 396.602 492.1 398.443C493.207 400.283 495.003 401.289 496.11 400.688L503.672 396.59C504.779 395.989 504.779 394.011 503.672 392.17L496.11 379.602C495.003 377.762 493.207 376.756 492.1 377.356Z" fill="#3478F6"/>
<path fill-rule="evenodd" clip-rule="evenodd" d="M602.113 329.763L602.087 329.776L602.062 329.79L602.059 329.792C601.434 330.136 600.784 330.645 600.207 331.298C596.612 335.362 593.345 339.562 590.477 343.816C590.167 344.275 589.805 344.959 589.557 345.614C589.283 346.334 589.164 346.946 589.111 347.642C588.843 351.151 588.826 352.843 588.837 353.521C588.826 354.211 588.843 355.884 589.111 359.102C589.164 359.74 589.283 360.223 589.557 360.646C589.805 361.031 590.167 361.322 590.477 361.445C593.345 362.584 596.612 363.236 600.207 363.397C600.784 363.423 601.433 363.226 602.059 362.892L602.063 362.89L602.084 362.879L602.087 362.877L602.102 362.869L602.113 362.863C602.738 362.518 603.388 362.009 603.965 361.357C607.559 357.292 610.827 353.093 613.695 348.838C614.004 348.379 614.367 347.695 614.615 347.04C614.889 346.32 615.008 345.708 615.061 345.012C615.329 341.503 615.346 339.811 615.335 339.134C615.346 338.443 615.329 336.77 615.061 333.553C615.008 332.915 614.889 332.432 614.615 332.008C614.367 331.623 614.004 331.333 613.695 331.21C610.827 330.07 607.559 329.418 603.965 329.257C603.388 329.232 602.738 329.428 602.113 329.763ZM585.024 371.837L585.05 371.823C585.675 371.488 586.325 371.292 586.902 371.318C590.496 371.479 593.764 372.131 596.632 373.27C596.941 373.393 597.304 373.684 597.552 374.069C597.826 374.492 597.945 374.975 597.998 375.613C598.266 378.831 598.283 380.504 598.272 381.194C598.283 381.872 598.266 383.564 597.998 387.073C597.945 387.769 597.826 388.381 597.552 389.101C597.304 389.756 596.941 390.44 596.632 390.899C593.764 395.153 590.496 399.353 586.902 403.417C586.325 404.07 585.675 404.579 585.05 404.923L585.039 404.929L585.024 404.937L585.021 404.939L585 404.951L584.996 404.952C584.37 405.287 583.721 405.483 583.144 405.458C579.549 405.297 576.282 404.645 573.414 403.505C573.104 403.382 572.742 403.092 572.494 402.707C572.22 402.283 572.101 401.8 572.048 401.162C571.78 397.945 571.763 396.272 571.774 395.581C571.763 394.904 571.78 393.212 572.048 389.703C572.101 389.007 572.22 388.395 572.494 387.675C572.742 387.02 573.104 386.336 573.414 385.876C576.282 381.622 579.549 377.423 583.144 373.358C583.721 372.706 584.371 372.197 584.996 371.852L584.999 371.85L585.024 371.837ZM619.246 353.256L619.272 353.242C619.898 352.907 620.547 352.711 621.124 352.737C624.719 352.898 627.986 353.55 630.854 354.689C631.164 354.812 631.526 355.103 631.774 355.488C632.048 355.911 632.167 356.394 632.22 357.032C632.488 360.25 632.506 361.923 632.494 362.613C632.506 363.291 632.488 364.983 632.22 368.492C632.167 369.187 632.048 369.8 631.774 370.52C631.526 371.175 631.164 371.859 630.854 372.318C627.986 376.572 624.719 380.772 621.124 384.836C620.547 385.489 619.898 385.997 619.272 386.342L619.261 386.348L619.246 386.356L619.243 386.358L619.222 386.369L619.219 386.371C618.593 386.706 617.943 386.902 617.366 386.876C613.772 386.716 610.505 386.064 607.636 384.924C607.327 384.801 606.964 384.51 606.716 384.126C606.442 383.702 606.324 383.219 606.27 382.581C606.002 379.363 605.985 377.69 605.996 377C605.985 376.323 606.002 374.631 606.27 371.122C606.324 370.426 606.442 369.814 606.716 369.093C606.964 368.438 607.327 367.755 607.636 367.295C610.505 363.041 613.772 358.841 617.366 354.777C617.943 354.125 618.593 353.616 619.219 353.271L619.222 353.269L619.246 353.256Z" fill="#3478F6"/>
<path d="M602.087 329.776L602.088 329.326L602.085 329.327L602.087 329.776ZM602.113 329.763L602.115 329.311L602.113 329.312L602.113 329.763ZM602.062 329.79L602.061 329.341L602.06 329.341L602.062 329.79ZM602.059 329.792L602.057 329.343L602.056 329.343L602.059 329.792ZM600.207 331.298L600.388 331.599L600.207 331.298ZM590.477 343.816L590.225 343.606V343.606L590.477 343.816ZM589.557 345.614L589.904 345.64V345.64L589.557 345.614ZM589.111 347.642L588.717 347.815V347.815L589.111 347.642ZM588.837 353.521L589.232 353.315L589.233 353.306L589.232 353.297L588.837 353.521ZM589.111 359.102L589.505 358.847L589.111 359.102ZM589.557 360.646L589.904 360.242L589.557 360.646ZM590.477 361.445L590.225 361.928L590.225 361.928L590.477 361.445ZM600.207 363.397L600.388 362.899L600.207 363.397ZM602.059 362.892L602.056 363.343L602.057 363.343L602.059 362.892ZM602.063 362.89L602.06 363.341L602.062 363.34L602.063 362.89ZM602.084 362.879L602.083 363.329L602.084 363.329V362.879ZM602.087 362.877V363.327L602.088 363.326L602.087 362.877ZM602.102 362.869L602.103 363.318L602.104 363.318L602.102 362.869ZM602.113 362.863L602.115 363.311L602.115 363.311L602.113 362.863ZM603.965 361.357L603.783 361.055L603.965 361.357ZM613.695 348.838L613.443 348.628V348.628L613.695 348.838ZM614.615 347.04L614.268 347.014V347.014L614.615 347.04ZM615.061 345.012L615.455 344.839V344.839L615.061 345.012ZM615.335 339.134L614.939 339.34L614.939 339.348L614.939 339.357L615.335 339.134ZM615.061 333.553L615.455 333.298V333.298L615.061 333.553ZM614.615 332.008L614.268 332.412L614.268 332.412L614.615 332.008ZM613.695 331.21L613.947 330.726V330.726L613.695 331.21ZM603.965 329.257L603.783 329.756V329.756L603.965 329.257ZM585.05 371.823L585.052 371.372L585.05 371.373L585.05 371.823ZM585.024 371.837L585.025 371.386L585.022 371.388L585.024 371.837ZM586.902 371.318L587.083 370.82L586.902 371.318ZM596.632 373.27L596.884 372.787L596.884 372.787L596.632 373.27ZM597.552 374.069L597.205 374.472L597.205 374.472L597.552 374.069ZM597.998 375.613L598.392 375.359L597.998 375.613ZM598.272 381.194L597.876 381.4L597.876 381.409L597.876 381.417L598.272 381.194ZM597.998 387.073L598.392 386.9L597.998 387.073ZM597.552 389.101L597.205 389.075L597.205 389.075L597.552 389.101ZM596.632 390.899L596.38 390.689L596.632 390.899ZM586.902 403.417L586.72 403.116L586.72 403.116L586.902 403.417ZM585.05 404.923L585.052 405.372L585.052 405.372L585.05 404.923ZM585.039 404.929L585.04 405.379L585.041 405.378L585.039 404.929ZM585.024 404.937V405.387L585.025 405.387L585.024 404.937ZM585.021 404.939L585.02 405.389L585.021 405.389V404.939ZM585 404.951L584.997 405.402L584.999 405.401L585 404.951ZM584.996 404.952L584.993 405.404L584.994 405.404L584.996 404.952ZM583.144 405.458L583.325 404.959L583.144 405.458ZM573.414 403.505L573.162 403.989L573.162 403.989L573.414 403.505ZM572.494 402.707L572.146 403.11L572.146 403.11L572.494 402.707ZM572.048 401.162L572.442 400.908L572.048 401.162ZM571.774 395.581L572.169 395.375L572.17 395.367L572.169 395.358L571.774 395.581ZM572.048 389.703L571.654 389.876L572.048 389.703ZM572.494 387.675L572.841 387.701L572.841 387.701L572.494 387.675ZM573.414 385.876L573.162 385.666L573.162 385.666L573.414 385.876ZM583.144 373.358L582.963 373.057L582.962 373.057L583.144 373.358ZM584.996 371.852L584.994 371.403L584.993 371.404L584.996 371.852ZM584.999 371.85L584.998 371.401L584.997 371.402L584.999 371.85ZM619.272 353.242L619.275 352.79L619.273 352.792L619.272 353.242ZM619.246 353.256L619.247 352.805L619.245 352.807L619.246 353.256ZM621.124 352.737L620.943 353.235L621.124 352.737ZM630.854 354.689L631.106 354.205L631.106 354.205L630.854 354.689ZM631.774 355.488L631.427 355.891V355.891L631.774 355.488ZM632.22 357.032L632.614 356.778V356.777L632.22 357.032ZM632.494 362.613L632.099 362.819L632.099 362.828L632.099 362.836L632.494 362.613ZM632.22 368.492L632.614 368.318V368.318L632.22 368.492ZM631.774 370.52L631.427 370.493V370.493L631.774 370.52ZM630.854 372.318L631.106 372.528L631.106 372.528L630.854 372.318ZM621.124 384.836L620.943 384.535L620.943 384.535L621.124 384.836ZM619.272 386.342L619.274 386.791L619.275 386.791L619.272 386.342ZM619.261 386.348L619.262 386.798L619.263 386.797L619.261 386.348ZM619.246 386.356V386.806L619.247 386.806L619.246 386.356ZM619.243 386.358L619.242 386.808L619.243 386.808V386.358ZM619.222 386.369L619.22 386.821L619.221 386.82L619.222 386.369ZM619.219 386.371L619.216 386.823L619.216 386.822L619.219 386.371ZM617.366 386.876L617.548 386.378L617.366 386.876ZM607.636 384.924L607.888 384.44L607.636 384.924ZM606.716 384.126L606.368 384.529L606.716 384.126ZM606.27 382.581L605.876 382.836L606.27 382.581ZM605.996 377L606.392 376.794L606.392 376.785L606.392 376.777L605.996 377ZM606.27 371.122L605.876 371.295L606.27 371.122ZM606.716 369.093L607.063 369.12L606.716 369.093ZM607.636 367.295L607.888 367.505L607.636 367.295ZM617.366 354.777L617.548 355.078L617.366 354.777ZM619.219 353.271L619.216 352.822L619.216 352.823L619.219 353.271ZM619.222 353.269L619.22 352.82L619.22 352.82L619.222 353.269ZM602.086 330.227L602.112 330.213L602.113 329.312L602.088 329.326L602.086 330.227ZM602.064 330.239L602.089 330.225L602.085 329.327L602.061 329.341L602.064 330.239ZM602.062 330.24L602.065 330.239L602.06 329.341L602.057 329.343L602.062 330.24ZM600.388 331.599C600.903 331.017 601.49 330.555 602.062 330.24L602.056 329.343C601.377 329.718 600.665 330.273 600.025 330.996L600.388 331.599ZM590.729 344.026C593.573 339.807 596.816 335.638 600.388 331.599L600.025 330.996C596.408 335.086 593.117 339.316 590.225 343.606L590.729 344.026ZM589.904 345.64C590.129 345.046 590.46 344.425 590.729 344.026L590.225 343.606C589.875 344.125 589.481 344.872 589.209 345.587L589.904 345.64ZM589.505 347.469C589.555 346.819 589.663 346.276 589.904 345.64L589.209 345.587C588.904 346.392 588.774 347.073 588.717 347.815L589.505 347.469ZM589.232 353.297C589.221 352.641 589.238 350.967 589.505 347.469L588.717 347.815C588.448 351.335 588.43 353.045 588.442 353.744L589.232 353.297ZM589.505 358.847C589.238 355.64 589.221 353.983 589.232 353.315L588.442 353.727C588.43 354.439 588.448 356.128 588.717 359.356L589.505 358.847ZM589.904 360.242C589.663 359.869 589.555 359.443 589.505 358.847L588.717 359.356C588.774 360.037 588.904 360.577 589.209 361.05L589.904 360.242ZM590.729 360.961C590.46 360.854 590.129 360.592 589.904 360.242L589.209 361.05C589.481 361.471 589.875 361.789 590.225 361.928L590.729 360.961ZM600.388 362.899C596.816 362.739 593.573 362.091 590.729 360.961L590.225 361.928C593.117 363.077 596.408 363.734 600.025 363.895L600.388 362.899ZM602.062 362.44C601.49 362.746 600.903 362.922 600.388 362.899L600.025 363.895C600.665 363.924 601.377 363.707 602.056 363.343L602.062 362.44ZM602.065 362.439L602.062 362.44L602.057 363.343L602.06 363.341L602.065 362.439ZM602.084 362.428L602.063 362.44L602.062 363.34L602.083 363.329L602.084 362.428ZM602.087 362.427L602.084 362.429V363.329L602.087 363.327V362.427ZM602.1 362.419L602.086 362.427L602.088 363.326L602.103 363.318L602.1 362.419ZM602.11 362.414L602.099 362.42L602.104 363.318L602.115 363.311L602.11 362.414ZM603.783 361.055C603.269 361.637 602.682 362.099 602.11 362.414L602.115 363.311C602.795 362.937 603.507 362.381 604.146 361.658L603.783 361.055ZM613.443 348.628C610.598 352.847 607.355 357.017 603.783 361.055L604.146 361.658C607.764 357.568 611.055 353.338 613.947 349.049L613.443 348.628ZM614.268 347.014C614.042 347.608 613.712 348.229 613.443 348.628L613.947 349.049C614.297 348.529 614.691 347.783 614.963 347.067L614.268 347.014ZM614.667 345.185C614.617 345.835 614.509 346.378 614.268 347.014L614.963 347.067C615.268 346.262 615.398 345.581 615.455 344.839L614.667 345.185ZM614.939 339.357C614.95 340.013 614.934 341.687 614.667 345.185L615.455 344.839C615.724 341.319 615.742 339.609 615.73 338.91L614.939 339.357ZM614.667 333.807C614.934 337.015 614.95 338.671 614.939 339.34L615.73 338.928C615.742 338.216 615.724 336.526 615.455 333.298L614.667 333.807ZM614.268 332.412C614.509 332.786 614.617 333.211 614.667 333.807L615.455 333.298C615.398 332.618 615.268 332.077 614.963 331.605L614.268 332.412ZM613.443 331.693C613.712 331.8 614.042 332.063 614.268 332.412L614.963 331.605C614.691 331.184 614.297 330.865 613.947 330.726L613.443 331.693ZM603.783 329.756C607.355 329.915 610.598 330.563 613.443 331.693L613.947 330.726C611.055 329.577 607.764 328.921 604.146 328.759L603.783 329.756ZM602.11 330.214C602.682 329.908 603.269 329.733 603.783 329.756L604.146 328.759C603.507 328.73 602.795 328.948 602.115 329.311L602.11 330.214ZM585.05 371.373L585.025 371.386L585.023 372.287L585.049 372.274L585.05 371.373ZM587.083 370.82C586.444 370.791 585.732 371.008 585.052 371.372L585.047 372.275C585.619 371.969 586.206 371.793 586.72 371.816L587.083 370.82ZM596.884 372.787C593.992 371.638 590.701 370.981 587.083 370.82L586.72 371.816C590.292 371.976 593.535 372.624 596.38 373.754L596.884 372.787ZM597.9 373.665C597.628 373.244 597.234 372.926 596.884 372.787L596.38 373.754C596.649 373.861 596.979 374.123 597.205 374.472L597.9 373.665ZM598.392 375.359C598.335 374.678 598.205 374.138 597.9 373.665L597.205 374.472C597.446 374.846 597.554 375.272 597.604 375.868L598.392 375.359ZM598.667 380.988C598.679 380.276 598.661 378.587 598.392 375.359L597.604 375.868C597.871 379.075 597.888 380.732 597.876 381.4L598.667 380.988ZM598.392 386.9C598.661 383.38 598.679 381.67 598.667 380.971L597.876 381.417C597.888 382.074 597.871 383.748 597.604 387.246L598.392 386.9ZM597.9 389.127C598.205 388.323 598.335 387.642 598.392 386.9L597.604 387.246C597.554 387.896 597.446 388.439 597.205 389.075L597.9 389.127ZM596.884 391.109C597.234 390.59 597.628 389.843 597.9 389.127L597.205 389.075C596.979 389.669 596.649 390.29 596.38 390.689L596.884 391.109ZM587.083 403.718C590.701 399.629 593.992 395.399 596.884 391.109L596.38 390.689C593.535 394.908 590.292 399.077 586.72 403.116L587.083 403.718ZM585.052 405.372C585.732 404.997 586.444 404.441 587.083 403.718L586.72 403.116C586.206 403.698 585.619 404.16 585.047 404.475L585.052 405.372ZM585.041 405.378L585.052 405.372L585.047 404.475L585.036 404.481L585.041 405.378ZM585.025 405.387L585.04 405.379L585.037 404.48L585.023 404.488L585.025 405.387ZM585.021 405.389L585.024 405.387V404.487L585.021 404.489V405.389ZM584.999 405.401L585.02 405.389L585.021 404.489L585 404.5L584.999 405.401ZM584.994 405.404L584.997 405.402L585.002 404.499L584.999 404.501L584.994 405.404ZM582.963 405.956C583.602 405.984 584.314 405.767 584.993 405.404L584.999 404.501C584.427 404.807 583.84 404.982 583.325 404.959L582.963 405.956ZM573.162 403.989C576.054 405.138 579.345 405.794 582.963 405.956L583.325 404.959C579.753 404.799 576.51 404.152 573.666 403.022L573.162 403.989ZM572.146 403.11C572.418 403.531 572.812 403.85 573.162 403.989L573.666 403.022C573.397 402.915 573.066 402.652 572.841 402.303L572.146 403.11ZM571.654 401.417C571.711 402.097 571.841 402.637 572.146 403.11L572.841 402.303C572.6 401.929 572.492 401.503 572.442 400.908L571.654 401.417ZM571.379 395.787C571.367 396.499 571.385 398.189 571.654 401.417L572.442 400.908C572.175 397.7 572.158 396.044 572.169 395.375L571.379 395.787ZM571.654 389.876C571.385 393.396 571.367 395.106 571.379 395.805L572.169 395.358C572.158 394.702 572.175 393.028 572.442 389.53L571.654 389.876ZM572.146 387.648C571.841 388.453 571.711 389.134 571.654 389.876L572.442 389.53C572.492 388.88 572.6 388.337 572.841 387.701L572.146 387.648ZM573.162 385.666C572.812 386.186 572.418 386.932 572.146 387.648L572.841 387.701C573.066 387.107 573.397 386.486 573.666 386.087L573.162 385.666ZM582.962 373.057C579.345 377.147 576.054 381.377 573.162 385.666L573.666 386.087C576.51 381.868 579.753 377.698 583.325 373.66L582.962 373.057ZM584.993 371.404C584.314 371.778 583.602 372.334 582.963 373.057L583.325 373.66C583.84 373.078 584.427 372.616 584.999 372.301L584.993 371.404ZM584.997 371.402L584.994 371.403L584.998 372.301L585.002 372.299L584.997 371.402ZM585.022 371.388L584.998 371.401L585.001 372.299L585.026 372.286L585.022 371.388ZM619.273 352.792L619.247 352.805L619.246 353.706L619.271 353.692L619.273 352.792ZM621.306 352.238C620.666 352.21 619.954 352.427 619.275 352.79L619.269 353.693C619.841 353.388 620.428 353.212 620.943 353.235L621.306 352.238ZM631.106 354.205C628.214 353.057 624.923 352.4 621.306 352.238L620.943 353.235C624.515 353.395 627.758 354.043 630.602 355.173L631.106 354.205ZM632.122 355.084C631.85 354.663 631.456 354.345 631.106 354.205L630.602 355.173C630.871 355.28 631.202 355.542 631.427 355.891L632.122 355.084ZM632.614 356.777C632.557 356.097 632.427 355.557 632.122 355.084L631.427 355.891C631.669 356.265 631.776 356.691 631.826 357.287L632.614 356.777ZM632.889 362.407C632.901 361.695 632.883 360.005 632.614 356.778L631.826 357.287C632.093 360.494 632.11 362.151 632.099 362.819L632.889 362.407ZM632.614 368.318C632.883 364.798 632.901 363.089 632.889 362.39L632.099 362.836C632.11 363.493 632.093 365.167 631.826 368.665L632.614 368.318ZM632.122 370.546C632.427 369.742 632.557 369.061 632.614 368.318L631.826 368.665C631.776 369.314 631.669 369.857 631.427 370.493L632.122 370.546ZM631.106 372.528C631.456 372.009 631.85 371.262 632.122 370.546L631.427 370.493C631.202 371.087 630.871 371.709 630.602 372.108L631.106 372.528ZM621.306 385.137C624.923 381.048 628.214 376.817 631.106 372.528L630.602 372.108C627.758 376.327 624.515 380.496 620.943 384.535L621.306 385.137ZM619.275 386.791C619.954 386.416 620.666 385.86 621.306 385.137L620.943 384.535C620.428 385.117 619.841 385.578 619.269 385.894L619.275 386.791ZM619.263 386.797L619.274 386.791L619.269 385.894L619.258 385.9L619.263 386.797ZM619.247 386.806L619.262 386.798L619.26 385.899L619.245 385.907L619.247 386.806ZM619.243 386.808L619.246 386.806V385.906L619.243 385.908V386.808ZM619.221 386.82L619.242 386.808L619.243 385.908L619.222 385.919L619.221 386.82ZM619.216 386.822L619.22 386.821L619.224 385.918L619.221 385.92L619.216 386.822ZM617.185 387.375C617.824 387.403 618.536 387.186 619.216 386.823L619.221 385.92C618.649 386.226 618.062 386.401 617.548 386.378L617.185 387.375ZM607.384 385.408C610.276 386.557 613.567 387.213 617.185 387.375L617.548 386.378C613.976 386.218 610.733 385.57 607.888 384.44L607.384 385.408ZM606.368 384.529C606.64 384.95 607.034 385.269 607.384 385.408L607.888 384.44C607.619 384.333 607.289 384.071 607.063 383.722L606.368 384.529ZM605.876 382.836C605.933 383.516 606.063 384.056 606.368 384.529L607.063 383.722C606.822 383.348 606.714 382.922 606.664 382.327L605.876 382.836ZM605.601 377.206C605.589 377.918 605.607 379.608 605.876 382.836L606.664 382.327C606.397 379.119 606.381 377.463 606.392 376.794L605.601 377.206ZM605.876 371.295C605.607 374.815 605.589 376.525 605.601 377.223L606.392 376.777C606.381 376.12 606.397 374.446 606.664 370.948L605.876 371.295ZM606.368 369.067C606.063 369.872 605.933 370.553 605.876 371.295L606.664 370.948C606.714 370.299 606.822 369.756 607.063 369.12L606.368 369.067ZM607.384 367.085C607.034 367.605 606.64 368.351 606.368 369.067L607.063 369.12C607.289 368.526 607.619 367.905 607.888 367.505L607.384 367.085ZM617.185 354.476C613.567 358.566 610.276 362.796 607.384 367.085L607.888 367.505C610.733 363.287 613.976 359.117 617.548 355.078L617.185 354.476ZM619.216 352.823C618.536 353.197 617.824 353.753 617.185 354.476L617.548 355.078C618.062 354.496 618.649 354.035 619.221 353.719L619.216 352.823ZM619.22 352.82L619.216 352.822L619.221 353.72L619.224 353.718L619.22 352.82ZM619.245 352.807L619.22 352.82L619.223 353.718L619.248 353.705L619.245 352.807Z" fill="#3478F6"/>
<circle r="5.94225" transform="matrix(0.896873 0.442289 0 1 465.16 419.93)" fill="#BCD4FF"/>
<circle r="3.90438" transform="matrix(0.896873 0.442289 0 1 465.161 419.93)" fill="#3478F6"/>
<circle r="4.87077" transform="matrix(0.92388 -0.382683 0 1 618.331 413.095)" fill="#BCD4FF"/>
<circle r="3.24718" transform="matrix(0.92388 -0.382683 0 1 618.541 413.094)" fill="#4886F7"/>
<circle r="4.87077" transform="matrix(0.92388 -0.382683 0 1 605.331 420.095)" fill="#BCD4FF"/>
<circle r="3.24718" transform="matrix(0.92388 -0.382683 0 1 605.541 420.094)" fill="#4886F7"/>
<circle r="4.87077" transform="matrix(0.92388 -0.382683 0 1 592.331 428.095)" fill="#BCD4FF"/>
<circle r="3.24718" transform="matrix(0.92388 -0.382683 0 1 592.541 428.094)" fill="#4886F7"/>
<path opacity="0.9" d="M557.435 133.848C557.435 138.112 555.146 141.927 551.917 141.927C555.146 141.927 557.435 145.743 557.435 150.007C557.435 145.743 559.724 141.927 562.953 141.927C559.724 141.927 557.435 138.112 557.435 133.848Z" fill="white"/>
<path opacity="0.9" d="M551.872 80.6854C551.896 83.4125 550.488 85.8646 548.472 85.8818C550.488 85.8646 551.937 88.2925 551.961 91.0193C551.937 88.2925 553.345 85.8401 555.361 85.8229C553.345 85.8401 551.896 83.4125 551.872 80.6854Z" fill="white"/>
<path opacity="0.9" d="M525.824 110.019C525.856 113.727 523.942 117.061 521.201 117.084C523.942 117.061 525.913 120.362 525.945 124.07C525.913 120.362 527.827 117.027 530.568 117.004C527.827 117.027 525.856 113.727 525.824 110.019Z" fill="white"/>
<circle cx="535.331" cy="138.86" r="1.5" fill="white"/>
<circle cx="543.831" cy="106.36" r="1" fill="white"/>
<circle cx="526.831" cy="80.3604" r="1" fill="white"/>
<path opacity="0.9" d="M813.518 464C813.518 468.265 811.229 472.08 808 472.08C811.229 472.08 813.518 475.895 813.518 480.16C813.518 475.895 815.807 472.08 819.036 472.08C815.807 472.08 813.518 468.265 813.518 464Z" fill="white"/>
<path opacity="0.9" d="M827.445 398.029C827.468 400.756 826.06 403.208 824.044 403.226C826.06 403.208 827.51 405.636 827.533 408.363C827.51 405.636 828.917 403.184 830.934 403.167C828.917 403.184 827.468 400.756 827.445 398.029Z" fill="white"/>
<path opacity="0.9" d="M758.445 445.029C758.468 447.756 757.06 450.208 755.044 450.226C757.06 450.208 758.51 452.636 758.533 455.363C758.51 452.636 759.917 450.184 761.934 450.167C759.917 450.184 758.468 447.756 758.445 445.029Z" fill="white"/>
<path opacity="0.9" d="M786.684 351.04C786.715 354.748 784.801 358.082 782.06 358.106C784.801 358.082 786.772 361.383 786.804 365.091C786.772 361.383 788.686 358.049 791.427 358.025C788.686 358.049 786.715 354.748 786.684 351.04Z" fill="white"/>
<circle cx="858.5" cy="468.5" r="0.5" fill="white"/>
<circle cx="791.5" cy="417.5" r="0.5" fill="white"/>
<circle cx="832" cy="360" r="1" fill="white"/>
</g>
<defs>
<linearGradient id="paint0_linear_262_704" x1="801.26" y1="320.36" x2="801.26" y2="571.177" gradientUnits="userSpaceOnUse">
<stop stop-color="#25BAFF" stop-opacity="0"/>
<stop offset="1" stop-color="#25BAFF"/>
</linearGradient>
<linearGradient id="paint1_linear_262_704" x1="543.831" y1="74.3603" x2="542.331" y2="198.86" gradientUnits="userSpaceOnUse">
<stop stop-color="#25BAFF" stop-opacity="0"/>
<stop offset="1" stop-color="#25BAFF"/>
</linearGradient>
<linearGradient id="paint2_linear_262_704" x1="543.831" y1="49.2646" x2="541.666" y2="198.851" gradientUnits="userSpaceOnUse">
<stop stop-color="#25BAFF" stop-opacity="0"/>
<stop offset="1" stop-color="#25BAFF"/>
</linearGradient>
<clipPath id="clip0_262_704">
<rect width="1062" height="748" fill="white"/>
</clipPath>
</defs>
</svg>
